<svg width="36" height="36" viewBox="0 0 36 36" fill="none" xmlns="http://www.w3.org/2000/svg">
<path d="M34.1054 25.71L28.0079 20.166C27.7197 19.904 27.341 19.7643 26.9516 19.7763C26.5623 19.7884 26.1929 19.9512 25.9214 20.2305L22.3319 23.922C21.4679 23.757 19.7309 23.2155 17.9429 21.432C16.1549 19.6425 15.6134 17.901 15.4529 17.043L19.1414 13.452C19.4211 13.1807 19.5841 12.8112 19.5962 12.4218C19.6082 12.0324 19.4683 11.6536 19.2059 11.3655L13.6634 5.2695C13.401 4.98053 13.0363 4.80526 12.6467 4.78089C12.2571 4.75652 11.8733 4.88499 11.5769 5.139L8.32193 7.9305C8.0626 8.19077 7.90781 8.53718 7.88693 8.904C7.86443 9.279 7.43543 18.162 14.3234 25.053C20.3324 31.0605 27.8594 31.5 29.9324 31.5C30.2354 31.5 30.4214 31.491 30.4709 31.488C30.8377 31.4675 31.1839 31.312 31.4429 31.0515L34.2329 27.795C34.488 27.4995 34.6174 27.1161 34.5935 26.7265C34.5697 26.337 34.3946 25.9722 34.1054 25.71Z" fill="black"/>
</svg>
